<svg preserveAspectRatio="none" overflow="visible" style="display: block;" width="40.772" height="40.7129" viewBox="0 0 40.772 40.7129" fill="none" xmlns="http://www.w3.org/2000/svg">
<g id="Group">
<path id="Vector" d="M19.4965 0.0203414C35.678 -0.683599 46.2517 17.0524 37.7733 30.9607C30.1895 43.4025 12.4003 44.0551 3.85953 32.2531C-5.63083 19.1385 3.44523 0.716949 19.4965 0.0185082V0.0203414ZM20.0245 2.61429C5.83203 2.9021 -2.38061 19.1165 5.96951 30.7151C13.3041 40.902 28.6074 40.4859 35.3553 29.9066C42.9777 17.9561 34.1069 2.33014 20.0245 2.61612V2.61429Z" fill="#660000"/>
<path id="Vector_2" d="M20.0246 2.6143C34.107 2.32832 42.9778 17.9562 35.3554 29.9048C28.6075 40.4841 13.3041 40.9002 5.96959 30.7132C-2.38053 19.1147 5.83211 2.90027 20.0246 2.61247V2.6143ZM21.9237 16.7169V14.409C21.9237 14.1083 22.3399 13.7179 22.624 13.6592C23.2711 13.5254 24.2134 13.7215 24.8916 13.6409C25.119 13.6134 25.1593 13.5272 25.1795 13.3127C25.2656 12.3778 25.1098 11.3127 25.1795 10.3631C25.1776 10.266 25.1153 10.1157 25.0163 10.0863L21.0658 10.0753C19.4801 10.1248 17.7038 11.8498 17.7038 13.441V16.7169H15.7918C15.6561 16.7169 15.6011 16.9351 15.5919 17.0451C15.5296 17.716 15.515 19.3402 15.5919 19.9947C15.6011 20.068 15.6781 20.2788 15.7459 20.2788H17.7019V30.4584C17.7019 30.4694 17.7881 30.6014 17.8083 30.6161L21.6836 30.6582C21.7477 30.6857 21.9237 30.5281 21.9237 30.5024V20.2788H24.7157C24.7688 20.2788 24.8532 20.0991 24.866 20.0331C25.0548 19.1166 24.9448 17.98 25.1355 17.0432C25.1703 16.9351 25.0328 16.7151 24.9356 16.7151H21.9237V16.7169Z" fill="white"/>
<path id="Vector_3" d="M21.9236 16.7169H24.9355C25.0327 16.7169 25.1702 16.9369 25.1354 17.0451C24.9447 17.9818 25.0565 19.1184 24.8659 20.035C24.8531 20.0991 24.7669 20.2806 24.7156 20.2806H21.9236V30.5042C21.9236 30.5317 21.7477 30.6876 21.6835 30.6601L17.8082 30.6179C17.788 30.6032 17.7018 30.4712 17.7018 30.4602V20.2806H15.7458C15.678 20.2806 15.5992 20.0698 15.5919 19.9965C15.5149 19.342 15.5295 17.7178 15.5919 17.0469C15.6029 16.9369 15.656 16.7187 15.7917 16.7187H17.7037V13.4429C17.7037 11.8517 19.4819 10.1266 21.0657 10.0771L25.0162 10.0881C25.1152 10.1175 25.1775 10.2678 25.1794 10.365C25.1115 11.3145 25.2655 12.3796 25.1794 13.3145C25.1592 13.529 25.1189 13.617 24.8916 13.6427C24.2133 13.7233 23.271 13.529 22.6239 13.661C22.3379 13.7197 21.9236 14.1101 21.9236 14.4108V16.7187V16.7169Z" fill="#660000"/>
</g>
</svg>
