<svg preserveAspectRatio="none" overflow="visible" style="display: block;" width="57" height="57" viewBox="0 0 57 57" fill="none" xmlns="http://www.w3.org/2000/svg">
<path id="Icon" d="M28.5106 57C24.5696 57 20.8643 56.2522 17.3948 54.7565C13.9254 53.2608 10.9074 51.2309 8.34097 48.6668C5.77452 46.1028 3.74274 43.0877 2.24565 39.6215C0.748549 36.1553 0 32.4516 0 28.5106C0 24.5696 0.748125 20.8643 2.24438 17.3948C3.74063 13.9254 5.77125 10.9074 8.33625 8.34097C10.9013 5.77452 13.9175 3.74274 17.385 2.24565C20.8525 0.748549 24.5575 0 28.5 0C31.741 0 34.8075 0.501389 37.6995 1.50417C40.5915 2.50694 43.2291 3.90555 45.6122 5.7L43.3346 8.05674C41.2478 6.50589 38.9525 5.30316 36.4486 4.44857C33.9446 3.59398 31.2951 3.16668 28.5 3.16668C21.4806 3.16668 15.5035 5.63404 10.5688 10.5688C5.63404 15.5035 3.16668 21.4806 3.16668 28.5C3.16668 35.5194 5.63404 41.4965 10.5688 46.4312C15.5035 51.366 21.4806 53.8333 28.5 53.8333C35.5194 53.8333 41.4965 51.366 46.4312 46.4312C51.366 41.4965 53.8333 35.5194 53.8333 28.5C53.8333 27.2252 53.7399 25.9749 53.5532 24.7492C53.3664 23.5234 53.0863 22.3317 52.7128 21.1741L55.2401 18.5859C55.8206 20.153 56.2591 21.7608 56.5555 23.4092C56.8518 25.0577 57 26.7546 57 28.5C57 32.4425 56.2522 36.1475 54.7565 39.615C53.2608 43.0825 51.2309 46.0987 48.6669 48.6637C46.1028 51.2287 43.0877 53.2594 39.6215 54.7556C36.1553 56.2519 32.4516 57 28.5106 57ZM23.9449 40.8744L12.6788 29.6083L14.9199 27.3673L23.9449 36.3923L54.759 5.55993L57 7.80097L23.9449 40.8744Z" fill="#4B5563"/>
</svg>
